<mxfile host="65bd71144e">
    <diagram id="dhjHChmwQ5UvWKzTRG_Z" name="Page-1">
        <mxGraphModel dx="1405" dy="613" grid="1" gridSize="10" guides="1" tooltips="1" connect="1" arrows="1" fold="1" page="1" pageScale="1" pageWidth="827" pageHeight="1169" math="0" shadow="0">
            <root>
                <mxCell id="0"/>
                <mxCell id="1" parent="0"/>
                <mxCell id="2" value="Конец" style="rounded=1;whiteSpace=wrap;html=1;arcSize=50;fontSize=18;fontColor=#F0F0F0;fillColor=#576675;labelBackgroundColor=none;gradientColor=none;" parent="1" vertex="1">
                    <mxGeometry x="-66" y="1460" width="120" height="50" as="geometry"/>
                </mxCell>
                <mxCell id="3" value="" style="edgeStyle=none;html=1;fontSize=18;fontColor=#F0F0F0;strokeColor=#F0F0F0;strokeWidth=2;fillColor=#576675;labelBackgroundColor=none;" parent="1" source="4" target="6" edge="1">
                    <mxGeometry relative="1" as="geometry"/>
                </mxCell>
                <mxCell id="4" value="&lt;font style=&quot;font-size: 18px&quot;&gt;Полученный от пользователя массив&amp;nbsp;&lt;/font&gt;&lt;span style=&quot;font-family: &amp;quot;jetbrains mono&amp;quot; , &amp;quot;consolas&amp;quot; , &amp;quot;courier new&amp;quot; , monospace ; font-size: 16px ; color: rgb(86 , 156 , 214)&quot;&gt;string&lt;/span&gt;&lt;span style=&quot;color: rgb(212, 212, 212); font-family: &amp;quot;jetbrains mono&amp;quot;, consolas, &amp;quot;courier new&amp;quot;, monospace; font-size: 16px;&quot;&gt;[&lt;/span&gt;&lt;span style=&quot;color: rgb(212, 212, 212); font-family: &amp;quot;jetbrains mono&amp;quot;, consolas, &amp;quot;courier new&amp;quot;, monospace; font-size: 16px;&quot;&gt;]&lt;/span&gt;&lt;span style=&quot;color: rgb(212, 212, 212); font-family: &amp;quot;jetbrains mono&amp;quot;, consolas, &amp;quot;courier new&amp;quot;, monospace; font-size: 16px;&quot;&gt; &lt;/span&gt;&lt;span style=&quot;font-family: &amp;quot;jetbrains mono&amp;quot; , &amp;quot;consolas&amp;quot; , &amp;quot;courier new&amp;quot; , monospace ; font-size: 16px ; color: rgb(156 , 220 , 254)&quot;&gt;strings&lt;/span&gt;" style="shape=parallelogram;perimeter=parallelogramPerimeter;whiteSpace=wrap;html=1;fixedSize=1;fontSize=18;fontColor=#F0F0F0;fillColor=#576675;labelBackgroundColor=none;" parent="1" vertex="1">
                    <mxGeometry x="-286" y="100" width="560" height="70" as="geometry"/>
                </mxCell>
                <mxCell id="5" value="" style="edgeStyle=none;html=1;fontSize=18;fontColor=#F0F0F0;strokeColor=#F0F0F0;strokeWidth=2;fillColor=#576675;labelBackgroundColor=none;" parent="1" source="6" target="9" edge="1">
                    <mxGeometry relative="1" as="geometry"/>
                </mxCell>
                <mxCell id="6" value="&lt;div style=&quot;color: rgb(212 , 212 , 212) ; font-family: &amp;quot;jetbrains mono&amp;quot; , &amp;quot;consolas&amp;quot; , &amp;quot;courier new&amp;quot; , monospace ; font-size: 16px ; line-height: 22px&quot;&gt;&lt;div style=&quot;font-family: &amp;quot;jetbrains mono&amp;quot;, consolas, &amp;quot;courier new&amp;quot;, monospace; line-height: 22px;&quot;&gt;&lt;span style=&quot;color: #569cd6&quot;&gt;string&lt;/span&gt;[] &lt;span style=&quot;color: #9cdcfe&quot;&gt;temp&lt;/span&gt; = &lt;span style=&quot;color: #569cd6&quot;&gt;new&lt;/span&gt; &lt;span style=&quot;color: #569cd6&quot;&gt;string&lt;/span&gt;[&lt;span style=&quot;color: #9cdcfe&quot;&gt;strings&lt;/span&gt;.Length];&lt;/div&gt;&lt;div style=&quot;font-family: &amp;quot;jetbrains mono&amp;quot;, consolas, &amp;quot;courier new&amp;quot;, monospace; line-height: 22px;&quot;&gt;&lt;div style=&quot;line-height: 22px&quot;&gt;&lt;span style=&quot;color: #569cd6&quot;&gt;int&lt;/span&gt; &lt;span style=&quot;color: #9cdcfe&quot;&gt;size&lt;/span&gt; = &lt;span style=&quot;color: #b5cea8&quot;&gt;0&lt;/span&gt;;&lt;/div&gt;&lt;/div&gt;&lt;/div&gt;&lt;div style=&quot;color: rgb(212 , 212 , 212) ; font-family: &amp;quot;jetbrains mono&amp;quot; , &amp;quot;consolas&amp;quot; , &amp;quot;courier new&amp;quot; , monospace ; font-size: 16px ; line-height: 22px&quot;&gt;&lt;div style=&quot;font-family: &amp;quot;jetbrains mono&amp;quot; , &amp;quot;consolas&amp;quot; , &amp;quot;courier new&amp;quot; , monospace ; line-height: 22px&quot;&gt;&lt;span style=&quot;color: #569cd6&quot;&gt;int&lt;/span&gt; &lt;span style=&quot;color: #9cdcfe&quot;&gt;i&lt;/span&gt; = &lt;span style=&quot;color: #b5cea8&quot;&gt;0&lt;/span&gt;;&lt;/div&gt;&lt;/div&gt;" style="whiteSpace=wrap;html=1;fontSize=18;fontColor=#F0F0F0;labelBackgroundColor=none;fillColor=#576675;" parent="1" vertex="1">
                    <mxGeometry x="-261" y="250" width="510" height="65" as="geometry"/>
                </mxCell>
                <mxCell id="7" value="" style="edgeStyle=none;html=1;fontSize=18;fontColor=#F0F0F0;strokeColor=#F0F0F0;strokeWidth=2;fillColor=#576675;labelBackgroundColor=none;" parent="1" source="9" target="12" edge="1">
                    <mxGeometry relative="1" as="geometry"/>
                </mxCell>
                <mxCell id="41" value="YES" style="edgeLabel;html=1;align=center;verticalAlign=middle;resizable=0;points=[];fontSize=16;fillColor=#576675;labelBackgroundColor=none;" parent="7" vertex="1" connectable="0">
                    <mxGeometry x="-0.5048" y="-1" relative="1" as="geometry">
                        <mxPoint as="offset"/>
                    </mxGeometry>
                </mxCell>
                <mxCell id="8" value="" style="edgeStyle=none;html=1;fontSize=18;fontColor=#F0F0F0;strokeColor=#F0F0F0;strokeWidth=4;fillColor=#576675;labelBackgroundColor=none;" parent="1" source="9" target="32" edge="1">
                    <mxGeometry relative="1" as="geometry">
                        <Array as="points">
                            <mxPoint x="380" y="420"/>
                            <mxPoint x="380" y="1195"/>
                        </Array>
                    </mxGeometry>
                </mxCell>
                <mxCell id="39" value="NO" style="edgeLabel;html=1;align=center;verticalAlign=middle;resizable=0;points=[];fontSize=16;fillColor=#576675;labelBackgroundColor=none;" parent="8" vertex="1" connectable="0">
                    <mxGeometry x="-0.9357" y="3" relative="1" as="geometry">
                        <mxPoint as="offset"/>
                    </mxGeometry>
                </mxCell>
                <mxCell id="9" value="&lt;div style=&quot;color: rgb(212, 212, 212); font-family: &amp;quot;jetbrains mono&amp;quot;, consolas, &amp;quot;courier new&amp;quot;, monospace; font-size: 12px; line-height: 22px;&quot;&gt;&lt;span style=&quot;color: #9cdcfe&quot;&gt;i&lt;/span&gt; &amp;lt; &lt;span style=&quot;color: #9cdcfe&quot;&gt;strings&lt;/span&gt;.Length&lt;/div&gt;" style="rhombus;whiteSpace=wrap;html=1;fontSize=18;fontColor=#F0F0F0;labelBackgroundColor=none;fillColor=#576675;" parent="1" vertex="1">
                    <mxGeometry x="-98" y="370" width="184" height="100" as="geometry"/>
                </mxCell>
                <mxCell id="10" value="" style="edgeStyle=none;html=1;fontSize=12;fontColor=#F0F0F0;strokeColor=#F0F0F0;strokeWidth=2;fillColor=#576675;labelBackgroundColor=none;" parent="1" source="12" edge="1">
                    <mxGeometry relative="1" as="geometry">
                        <mxPoint x="-6.159781028141424" y="800.1094859293476" as="targetPoint"/>
                    </mxGeometry>
                </mxCell>
                <mxCell id="42" value="YES" style="edgeLabel;html=1;align=center;verticalAlign=middle;resizable=0;points=[];fontSize=16;fillColor=#576675;labelBackgroundColor=none;" parent="10" vertex="1" connectable="0">
                    <mxGeometry x="-0.5574" y="1" relative="1" as="geometry">
                        <mxPoint as="offset"/>
                    </mxGeometry>
                </mxCell>
                <mxCell id="11" style="edgeStyle=none;html=1;exitX=1;exitY=0.5;exitDx=0;exitDy=0;entryX=1;entryY=0.5;entryDx=0;entryDy=0;fontSize=18;fontColor=#F0F0F0;strokeColor=#F0F0F0;strokeWidth=4;fillColor=#576675;labelBackgroundColor=none;" parent="1" source="12" target="27" edge="1">
                    <mxGeometry relative="1" as="geometry">
                        <Array as="points">
                            <mxPoint x="290" y="630"/>
                            <mxPoint x="290" y="960"/>
                        </Array>
                    </mxGeometry>
                </mxCell>
                <mxCell id="40" value="NO" style="edgeLabel;html=1;align=center;verticalAlign=middle;resizable=0;points=[];fontSize=16;fillColor=#576675;labelBackgroundColor=none;" parent="11" vertex="1" connectable="0">
                    <mxGeometry x="-0.9188" y="3" relative="1" as="geometry">
                        <mxPoint as="offset"/>
                    </mxGeometry>
                </mxCell>
                <mxCell id="12" value="&lt;div style=&quot;color: rgb(212 , 212 , 212) ; font-family: &amp;quot;jetbrains mono&amp;quot; , &amp;quot;consolas&amp;quot; , &amp;quot;courier new&amp;quot; , monospace ; font-size: 12px ; line-height: 22px&quot;&gt;&lt;span style=&quot;color: #9cdcfe&quot;&gt;strings&lt;/span&gt;[&lt;span style=&quot;color: #9cdcfe&quot;&gt;i&lt;/span&gt;].Length &amp;lt;= &lt;span style=&quot;color: #b5cea8&quot;&gt;3&lt;/span&gt;&amp;nbsp;&lt;/div&gt;&lt;div style=&quot;color: rgb(212 , 212 , 212) ; font-family: &amp;quot;jetbrains mono&amp;quot; , &amp;quot;consolas&amp;quot; , &amp;quot;courier new&amp;quot; , monospace ; font-size: 12px ; line-height: 22px&quot;&gt;&amp;amp;&amp;amp; &lt;span style=&quot;color: #9cdcfe&quot;&gt;strings&lt;/span&gt;[&lt;span style=&quot;color: #9cdcfe&quot;&gt;i&lt;/span&gt;] != &lt;span style=&quot;color: #ce9178&quot;&gt;&quot; &quot;&lt;/span&gt;&amp;nbsp;&lt;/div&gt;&lt;div style=&quot;color: rgb(212 , 212 , 212) ; font-family: &amp;quot;jetbrains mono&amp;quot; , &amp;quot;consolas&amp;quot; , &amp;quot;courier new&amp;quot; , monospace ; font-size: 12px ; line-height: 22px&quot;&gt;&amp;amp;&amp;amp; !&lt;span style=&quot;color: #569cd6&quot;&gt;string&lt;/span&gt;.&lt;span style=&quot;color: #dcdcaa&quot;&gt;IsNullOrEmpty&lt;/span&gt;(&lt;span style=&quot;color: #9cdcfe&quot;&gt;strings&lt;/span&gt;[&lt;span style=&quot;color: #9cdcfe&quot;&gt;i&lt;/span&gt;])&lt;/div&gt;" style="rhombus;whiteSpace=wrap;html=1;fontSize=18;fontColor=#F0F0F0;strokeColor=default;labelBackgroundColor=none;fillColor=#576675;" parent="1" vertex="1">
                    <mxGeometry x="-197" y="520" width="381" height="220" as="geometry"/>
                </mxCell>
                <mxCell id="22" value="" style="edgeStyle=none;html=1;fontSize=18;fontColor=#F0F0F0;strokeColor=#F0F0F0;strokeWidth=2;fillColor=#576675;labelBackgroundColor=none;" parent="1" source="23" target="27" edge="1">
                    <mxGeometry relative="1" as="geometry"/>
                </mxCell>
                <mxCell id="23" value="&lt;div style=&quot;color: rgb(212 , 212 , 212) ; font-family: &amp;quot;jetbrains mono&amp;quot; , &amp;quot;consolas&amp;quot; , &amp;quot;courier new&amp;quot; , monospace ; font-size: 16px ; line-height: 22px&quot;&gt;&lt;div style=&quot;font-family: &amp;quot;jetbrains mono&amp;quot; , &amp;quot;consolas&amp;quot; , &amp;quot;courier new&amp;quot; , monospace ; font-size: 16px ; line-height: 22px&quot;&gt;&lt;span style=&quot;color: rgb(156 , 220 , 254) ; font-size: 16px&quot;&gt;temp&lt;/span&gt;[&lt;span style=&quot;color: rgb(156 , 220 , 254) ; font-size: 16px&quot;&gt;size&lt;/span&gt;] = &lt;span style=&quot;color: rgb(206 , 145 , 120) ; font-size: 16px&quot;&gt;&quot;'&quot;&lt;/span&gt; + &lt;span style=&quot;color: rgb(156 , 220 , 254) ; font-size: 16px&quot;&gt;strings&lt;/span&gt;[&lt;span style=&quot;color: rgb(156 , 220 , 254) ; font-size: 16px&quot;&gt;i&lt;/span&gt;] + &lt;span style=&quot;color: rgb(206 , 145 , 120) ; font-size: 16px&quot;&gt;&quot;'&quot;&lt;/span&gt;;&lt;/div&gt;&lt;div style=&quot;font-family: &amp;quot;jetbrains mono&amp;quot; , &amp;quot;consolas&amp;quot; , &amp;quot;courier new&amp;quot; , monospace ; font-size: 16px ; line-height: 22px&quot;&gt;&lt;div style=&quot;font-family: &amp;quot;jetbrains mono&amp;quot;, consolas, &amp;quot;courier new&amp;quot;, monospace; line-height: 22px;&quot;&gt;&lt;span style=&quot;color: #9cdcfe&quot;&gt;size&lt;/span&gt;++;&lt;/div&gt;&lt;/div&gt;&lt;/div&gt;" style="whiteSpace=wrap;html=1;fontSize=16;fontColor=#F0F0F0;labelBackgroundColor=none;fillColor=#576675;" parent="1" vertex="1">
                    <mxGeometry x="-187" y="800" width="362" height="60" as="geometry"/>
                </mxCell>
                <mxCell id="26" value="" style="edgeStyle=none;html=1;fontSize=18;fontColor=#F0F0F0;strokeColor=#F0F0F0;entryX=0;entryY=0.5;entryDx=0;entryDy=0;strokeWidth=4;fillColor=#576675;labelBackgroundColor=none;" parent="1" source="27" target="9" edge="1">
                    <mxGeometry relative="1" as="geometry">
                        <mxPoint x="-6" y="1260" as="targetPoint"/>
                        <Array as="points">
                            <mxPoint x="-6" y="1050"/>
                            <mxPoint x="-290" y="1050"/>
                            <mxPoint x="-290" y="420"/>
                        </Array>
                    </mxGeometry>
                </mxCell>
                <mxCell id="27" value="&lt;div style=&quot;color: rgb(212, 212, 212); font-family: &amp;quot;jetbrains mono&amp;quot;, consolas, &amp;quot;courier new&amp;quot;, monospace; font-size: 16px; line-height: 22px;&quot;&gt;&lt;span style=&quot;color: #9cdcfe&quot;&gt;i&lt;/span&gt;++;&lt;/div&gt;" style="whiteSpace=wrap;html=1;fontSize=18;fontColor=#F0F0F0;labelBackgroundColor=none;fillColor=#576675;" parent="1" vertex="1">
                    <mxGeometry x="-66" y="940" width="120" height="40" as="geometry"/>
                </mxCell>
                <mxCell id="28" value="" style="edgeStyle=none;html=1;fontSize=18;fontColor=#F0F0F0;strokeColor=#F0F0F0;strokeWidth=2;fillColor=#576675;labelBackgroundColor=none;" parent="1" source="32" target="34" edge="1">
                    <mxGeometry relative="1" as="geometry"/>
                </mxCell>
                <mxCell id="29" value="YES" style="edgeLabel;html=1;align=center;verticalAlign=middle;resizable=0;points=[];fontSize=18;fontColor=default;fillColor=#576675;labelBackgroundColor=none;" parent="28" vertex="1" connectable="0">
                    <mxGeometry x="-0.5025" relative="1" as="geometry">
                        <mxPoint as="offset"/>
                    </mxGeometry>
                </mxCell>
                <mxCell id="30" value="" style="edgeStyle=none;html=1;fontSize=18;fontColor=#F0F0F0;strokeColor=#F0F0F0;strokeWidth=2;labelBackgroundColor=none;fillColor=#576675;" parent="1" source="32" target="36" edge="1">
                    <mxGeometry relative="1" as="geometry">
                        <Array as="points">
                            <mxPoint x="-315" y="1195"/>
                        </Array>
                    </mxGeometry>
                </mxCell>
                <mxCell id="31" value="NO" style="edgeLabel;html=1;align=center;verticalAlign=middle;resizable=0;points=[];fontSize=18;fontColor=default;fillColor=#576675;labelBackgroundColor=none;" parent="30" vertex="1" connectable="0">
                    <mxGeometry x="-0.588" y="-2" relative="1" as="geometry">
                        <mxPoint as="offset"/>
                    </mxGeometry>
                </mxCell>
                <mxCell id="32" value="&lt;div style=&quot;color: rgb(212 , 212 , 212) ; font-family: &amp;quot;jetbrains mono&amp;quot; , &amp;quot;consolas&amp;quot; , &amp;quot;courier new&amp;quot; , monospace ; font-size: 16px ; line-height: 22px&quot;&gt;&lt;div style=&quot;font-family: &amp;quot;jetbrains mono&amp;quot;, consolas, &amp;quot;courier new&amp;quot;, monospace; line-height: 22px;&quot;&gt;&lt;span style=&quot;color: #9cdcfe&quot;&gt;size&lt;/span&gt; == &lt;span style=&quot;color: #b5cea8&quot;&gt;0&lt;/span&gt;&lt;/div&gt;&lt;/div&gt;" style="rhombus;whiteSpace=wrap;html=1;fontSize=18;fontColor=#F0F0F0;labelBackgroundColor=none;fillColor=#576675;" parent="1" vertex="1">
                    <mxGeometry x="-128" y="1130" width="244" height="130" as="geometry"/>
                </mxCell>
                <mxCell id="33" value="" style="edgeStyle=none;html=1;labelBackgroundColor=none;fontSize=18;fontColor=default;strokeColor=#F0F0F0;strokeWidth=2;fillColor=#576675;" parent="1" source="34" edge="1">
                    <mxGeometry relative="1" as="geometry">
                        <mxPoint x="-6" y="1457.5" as="targetPoint"/>
                    </mxGeometry>
                </mxCell>
                <mxCell id="34" value="&lt;div style=&quot;color: rgb(212, 212, 212); font-family: &amp;quot;jetbrains mono&amp;quot;, consolas, &amp;quot;courier new&amp;quot;, monospace; font-size: 16px; line-height: 22px;&quot;&gt;&lt;span style=&quot;color: #c586c0&quot;&gt;return&lt;/span&gt; &lt;span style=&quot;color: #569cd6&quot;&gt;new&lt;/span&gt; &lt;span style=&quot;color: #569cd6&quot;&gt;string&lt;/span&gt;[&lt;span style=&quot;color: #b5cea8&quot;&gt;0&lt;/span&gt;];&lt;/div&gt;" style="whiteSpace=wrap;html=1;fontSize=18;fontColor=#F0F0F0;labelBackgroundColor=none;fillColor=#576675;" parent="1" vertex="1">
                    <mxGeometry x="-123" y="1340" width="234" height="45" as="geometry"/>
                </mxCell>
                <mxCell id="35" style="edgeStyle=none;html=1;entryX=0;entryY=0.5;entryDx=0;entryDy=0;labelBackgroundColor=none;fontSize=18;fontColor=default;strokeColor=#F0F0F0;strokeWidth=2;fillColor=#576675;" parent="1" source="36" edge="1">
                    <mxGeometry relative="1" as="geometry">
                        <mxPoint x="-66" y="1487.5" as="targetPoint"/>
                        <Array as="points">
                            <mxPoint x="-315" y="1488"/>
                        </Array>
                    </mxGeometry>
                </mxCell>
                <mxCell id="36" value="&lt;div style=&quot;color: rgb(212 , 212 , 212) ; font-family: &amp;quot;jetbrains mono&amp;quot; , &amp;quot;consolas&amp;quot; , &amp;quot;courier new&amp;quot; , monospace ; font-size: 16px ; line-height: 22px&quot;&gt;&lt;div style=&quot;line-height: 22px;&quot;&gt;&lt;span style=&quot;color: rgb(78 , 201 , 176)&quot;&gt;Array&lt;/span&gt;.&lt;span style=&quot;color: rgb(220 , 220 , 170)&quot;&gt;Resize&lt;/span&gt;(&lt;span style=&quot;color: rgb(86 , 156 , 214)&quot;&gt;ref&lt;/span&gt;&amp;nbsp;&lt;span style=&quot;color: rgb(156 , 220 , 254)&quot;&gt;temp&lt;/span&gt;,&amp;nbsp;&lt;span style=&quot;color: rgb(156 , 220 , 254)&quot;&gt;size&lt;/span&gt;);&lt;/div&gt;&lt;div style=&quot;line-height: 22px;&quot;&gt;&lt;div style=&quot;font-family: &amp;quot;jetbrains mono&amp;quot; , &amp;quot;consolas&amp;quot; , &amp;quot;courier new&amp;quot; , monospace ; line-height: 22px&quot;&gt;&lt;span style=&quot;color: rgb(197 , 134 , 192)&quot;&gt;return&lt;/span&gt;&amp;nbsp;&lt;span style=&quot;color: rgb(156 , 220 , 254)&quot;&gt;temp&lt;/span&gt;;&lt;/div&gt;&lt;/div&gt;&lt;/div&gt;" style="whiteSpace=wrap;html=1;fontSize=18;fontColor=#F0F0F0;labelBackgroundColor=none;fillColor=#576675;" parent="1" vertex="1">
                    <mxGeometry x="-480" y="1340" width="330" height="45" as="geometry"/>
                </mxCell>
                <mxCell id="37" style="edgeStyle=none;html=1;entryX=0.5;entryY=0;entryDx=0;entryDy=0;strokeWidth=2;fillColor=#576675;labelBackgroundColor=none;" parent="1" source="38" target="4" edge="1">
                    <mxGeometry relative="1" as="geometry"/>
                </mxCell>
                <mxCell id="38" value="Начало" style="rounded=1;whiteSpace=wrap;html=1;arcSize=50;fontSize=18;fontColor=#F0F0F0;fillColor=#576675;labelBackgroundColor=none;" parent="1" vertex="1">
                    <mxGeometry x="-66" width="120" height="50" as="geometry"/>
                </mxCell>
                <mxCell id="43" value="&lt;font style=&quot;font-size: 18px&quot;&gt;Возвращает сформированный массив&lt;/font&gt;" style="text;html=1;align=center;verticalAlign=middle;resizable=0;points=[];autosize=1;strokeColor=none;fillColor=#576675;labelBackgroundColor=none;" parent="1" vertex="1">
                    <mxGeometry x="-330" y="1410" width="340" height="20" as="geometry"/>
                </mxCell>
            </root>
        </mxGraphModel>
    </diagram>
</mxfile>